<?xml version="1.0" encoding="UTF-8" standalone="no"?>
<svg
   xmlns:dc="http://purl.org/dc/elements/1.1/"
   xmlns:cc="http://creativecommons.org/ns#"
   xmlns:rdf="http://www.w3.org/1999/02/22-rdf-syntax-ns#"
   xmlns:svg="http://www.w3.org/2000/svg"
   xmlns="http://www.w3.org/2000/svg"
   xmlns:sodipodi="http://sodipodi.sourceforge.net/DTD/sodipodi-0.dtd"
   xmlns:inkscape="http://www.inkscape.org/namespaces/inkscape"
   version="1.1"
   id="Layer_1"
   x="0px"
   y="0px"
   width="651"
   height="471"
   viewBox="0 0 651.0000000000003 470.999999999999"
   enable-background="new 0 0 578 462"
   xml:space="preserve"
   inkscape:version="0.91 r13725"
   sodipodi:docname="Dog-1.svg"><metadata
     id="metadata8"><rdf:RDF><cc:Work
         rdf:about=""><dc:format>image/svg+xml</dc:format><dc:type
           rdf:resource="http://purl.org/dc/dcmitype/StillImage" /><dc:date>2016</dc:date><dc:creator><cc:Agent><dc:title>Lazur</dc:title></cc:Agent></dc:creator><dc:description>Original raster images of this series were uploaded by NicholasJudy456 to openclipart embedded in svg-s (416 in total).  This is one of the refixes upon request by the original author.</dc:description><dc:contributor><cc:Agent><dc:title /></cc:Agent></dc:contributor><dc:title></dc:title></cc:Work></rdf:RDF></metadata><defs
     id="defs6" /><sodipodi:namedview
     pagecolor="#ffffff"
     bordercolor="#666666"
     borderopacity="1"
     objecttolerance="10"
     gridtolerance="10"
     guidetolerance="10"
     inkscape:pageopacity="0"
     inkscape:pageshadow="2"
     inkscape:window-width="1366"
     inkscape:window-height="705"
     id="namedview4"
     showgrid="false"
     borderlayer="true"
     inkscape:showpageshadow="false"
     inkscape:zoom="1.178343949044586"
     inkscape:cx="325.5"
     inkscape:cy="235.5"
     inkscape:window-x="-8"
     inkscape:window-y="-8"
     inkscape:window-maximized="1"
     inkscape:current-layer="Layer_1"
     fit-margin-top="0"
     fit-margin-left="0"
     fit-margin-right="0"
     fit-margin-bottom="0"
     showguides="false"
     inkscape:guide-bbox="true"
     showborder="true" /><path
     inkscape:connector-curvature="0"
     id="path4737"
     d="m 274.1430111958157,440.9016503509848 -18.4806469699598,-6.9209691074774 -18.208784248731,-7.1937679330491 20.5673795868741,-39.3259072051717 20.9385280614612,-38.9547587305844 -7.2268594013513,-7.2754155812887 -7.2268594013513,-7.2754155812886 -1.1779299571327,1.6109152048784 -30.0028844113788,38.6047354949432 -28.8249544542462,36.9938202900648 -6.1626074109511,-6.8193392832642 -5.9041967172037,-7.3324436010055 23.9405606136674,-42.0779207426696 23.6821499199199,-41.5648164249284 -4.4952004918355,-9.6851835750716 -4.4952004918355,-9.6851835750717 -2.3697097567766,0 -94.2409570751482,-1.541537697598 -92.12365054762192,-1.7939409268538 -1.79179563573247,-18.5187419365227 -1.53939240648236,-19.2060590731462 -2e-14,-0.9397203658792 14.40181310257028,0 14.40181310257024,0 0.57950243832212,-5.75 1.20864778665441,-12.4436357029642 0.62914534833229,-6.6936357029642 4.55912131389232,-1.5534487605819 4.86671844296137,-1.2458516315195 1.7428253535428,10.5761586868725 1.77282066781396,10.5932556331734 10.33759244334017,-1.5546132685591 12.2500000000002,-2.4228203269039 2.25,-0.5435129829814 0,-8.9809479717859 0.4120317909272,-8.9809479717858 8.1803432366548,-1.4863234300086 8.1791375091933,-1.0754973665517 2.1323172817662,7.2363234300086 1.7214912183002,6.8254973665517 15.5871357859208,0.2748841419387 15.5871357859207,0.2748841419388 0.7201022184922,-11.5248841419388 0.7201022184923,-11.5248841419385 5.2974226953384,0 5.2974226953385,0 3.7072407733526,11.2499999999999 4.4914534957063,12.1087747138771 0.7842127223538,0.8587747138771 6.0912252861213,-0.7069616113067 6.0912252861214,-0.7069616113067 0,-19.882761074356 0,-19.8827610743562 -2.4478366971577,-0.6143679024783 -19.2468827416806,-4.4388359531995 -17.1875363234191,-3.435977771829 -1.7977691756796,12.6311025090133 -1.6146269794232,12.4382866015651 -10.3277332002559,0.9084551586773 -10.1223851176158,0.7127807872337 -0.7238450992974,-10.6197737427055 -0.7238450992973,-10.6197737427055 -12.3584567244319,0 -12.3584567244321,0 -0.5579233175772,3.25 -2.0759338614339,13.6972874694487 -1.88779392274557,10.8170708483296 -8.04173868189045,-0.6972874694487 -8.59959581833202,-1.0670708483296 -0.92764051533051,0 0,-14.5 0,-14.5 -8.60395961867984,0 -8.60395961867992,0 0.73264834774717,14.6559070420824 0.73264834774716,14.6559070420823 -6.27537990347292,-0.6559070420823 -8.6286887290673,-0.6559070420824 -2.35330882559431,0 0,-14.9102308949513 0,-14.9102308949514 -8.56697253311056,-0.7136248739596 -8.56697253311056,-0.7136248739597 0.56797515672036,-3.626144231089 5.06697253311056,-39.7831142692045 4.4989973763902,-36.5848194991683 -8.05513544697096,-7.30528483856617 -8.05513544697096,-6.87743537751329 0.47151602216196,-2.0377451233184 1.60570046674933,-7.68980262007165 1.13418444458736,-5.65205749675323 6.04395857650162,-1.06462232541105 6.04395857650161,-1.06462232541111 5.83309634456134,2.94453766630312 5.83309634456132,2.94453766630305 2.22315110361994,9.95707783594385 2.88118120367809,11.02179290345858 0.65803010005817,1.0647150675145 57.3585553105934,2.4996594639614 57.7212204741442,2.1369943004004 -0.6617928397186,-21.74931021155868 -1.0300216186638,-23.63664504799747 -0.00556361539,-2.25 21.5,0 21.5,0 0.019266005593,0.75 2.4348555040269,23.60152217068656 2.8260503220113,23.26198299427649 4.2280689101262,0.6484778293137 3.8176080865485,0.2380170057234 4.8991859083637,-19.47877698918046 5.1892701719701,-19.76886125279519 19.6334001716388,3.75762081666511 19.6173677390487,4.32175691130459 -8.0716691536267,20.22115617251506 -10.148786408105,23.68454692521439 -1.3738413405289,4.1141291481068 9.9980460634176,5.5011922869762 9.5688219804845,5.124505722593 99.4504080789315,-8.9850657312654 99.4504080789314,-8.9850657312655 41.9350442852688,7.9878148225943 41.9350442852691,7.9878148225943 2.5457256553152,-2.3154805808856 19.0457256553151,-17.1672873431716 19.0340245954794,-17.15607701638747 2.5340245954799,-2.30427025410188 7.2049053844669,5.1410490497792 7.204905384467,5.14104904977935 -0.821660998398,1.0891245854653 -19.1561989614952,25.0891245854656 -19.1456169826125,25.076374080938 -0.8110790195148,1.076374080938 -2.5416085695116,127.8602491563081 -2.7968677495131,128.1155083363024 -15.0966684105588,1.3634184482896 -15.2448873914318,0.7046811074156 -9.169244569386,-32.0025779027163 -9.2378341310065,-32.0711674643386 -11.2925931430134,1.8643322440432 -11.2550357308637,2.770910276898 1.5914356974123,39.7418976359227 1.6760151023061,39.6573182310266 -14.682379021004,2.3435669867551 -14.7219791911487,1.604105005705 -6.6693483944048,-38.0026817277387 -6.7634791653504,-38.0968124986849 -12.4112455884705,1.0358383302408 -11.9275837419277,1.5195001767806 -62.4927028249364,-7.4877144271065 -62.4927028249364,-7.4877144271063 -0.6807549206492,0.7072971750638 -18.3670974225087,44.2072971750638 -18.1835310585988,44.75 z"
     style="fill:#b87956"
     sodipodi:nodetypes="ccccccccccccccccccccccccccccccccccccccccccccccccccccccccccccccccccccccccccccccccccccccccccccccccccccccccccccccccccccccccccccccccccccccccccccccccccccccccccc" /><path
     inkscape:connector-curvature="0"
     id="path4739"
     d="m 223.25,162.9087825885622 -6.591142193233,-1.9244755265664 -6.2517936797172,-2.2439096016127 2.5938469843095,-15.2448959311767 3.328183364834,-15.1579293387331 6.4972952089236,1.7611757824129 6.163995497863,2.7430563517835 -2.4903851829799,15.1581956753303 -2.4903851829799,14.75 z m -68.5,-12.0688196611561 -5.5,-0.5633584840881 -3.2457483553847,-0.5899629274061 2.4931024470828,-14.0964106296614 2.8498213847968,-14.2707396960787 5.5068975529172,0.7426332006211 5.1459269705879,1.3871252876019 -2.5,13.5507503216052 -2.5,13.6336144084768 z"
     style="fill:#fefefe"
     sodipodi:nodetypes="cccccccccccccccccccc" /></svg>